<svg xmlns="http://www.w3.org/2000/svg" width="18" height="18" viewBox="0 0 18 18">
  <path id="Path_15" data-name="Path 15" d="M1949.979,1510.514a9,9,0,1,1-8.959-9.014A8.978,8.978,0,0,1,1949.979,1510.514Zm-5.594,2.383a15.186,15.186,0,0,0,0-4.786h-6.828a16.232,16.232,0,0,0,0,4.786Zm-6.584-6.005h6.358a7.818,7.818,0,0,0-1.616-3.353,3.363,3.363,0,0,0-.641-.542,1.56,1.56,0,0,0-1.8-.029,3.2,3.2,0,0,0-.637.517A7.687,7.687,0,0,0,1937.8,1506.891Zm.016,7.219a7.675,7.675,0,0,0,1.559,3.316,3.8,3.8,0,0,0,.695.594,1.546,1.546,0,0,0,1.828-.01,4.1,4.1,0,0,0,.8-.725,6.808,6.808,0,0,0,1.2-2.311c.094-.281.169-.567.257-.864Zm-4.258-6a7.716,7.716,0,0,0,0,4.786h2.791a16.978,16.978,0,0,1,0-4.786Zm14.841,4.786a7.735,7.735,0,0,0,0-4.78h-2.793a16.932,16.932,0,0,1,0,4.78Zm-3.01-6h2.5a7.73,7.73,0,0,0-3.975-3.589A10.663,10.663,0,0,1,1945.39,1506.894Zm-1.485,10.8a7.652,7.652,0,0,0,3.988-3.586c-.827,0-1.619,0-2.411.006-.041,0-.1.088-.118.145a10.3,10.3,0,0,1-1.391,3.313C1943.948,1517.608,1943.927,1517.65,1943.9,1517.691Zm-5.848,0c-.025-.042-.05-.085-.076-.127a9.953,9.953,0,0,1-1.373-3.279c-.03-.138-.076-.181-.217-.179-.605.008-1.211,0-1.817,0h-.508A7.633,7.633,0,0,0,1938.057,1517.686Zm-3.992-10.784c.823,0,1.609,0,2.4,0,.12,0,.12-.073.139-.155a10.123,10.123,0,0,1,1.387-3.314c.025-.039.044-.08.067-.12A7.672,7.672,0,0,0,1934.065,1506.9Z" transform="translate(-1931.979 -1501.5)" fill="#7f45f1"/>
</svg>
