<svg xmlns="http://www.w3.org/2000/svg" width="18" height="18" viewBox="0 0 18 18">
  <g id="Group_10" data-name="Group 10" transform="translate(-2053.37 -722.969)">
    <path id="Path_16" data-name="Path 16" d="M2059.91,731.858a4.505,4.505,0,0,1-2.641-5.726,5.463,5.463,0,0,1,5.384-3.161,5.3,5.3,0,0,1,4.936,3.452c.62,1.957-.276,4.269-2.771,5.441l.3.094c3.456,1.065,5.526,3.163,6.146,6.305a10.961,10.961,0,0,1,.109,1.949.823.823,0,0,1-.861.754c-.075,0-.15,0-.225,0h-15.8c-.78,0-1.083-.283-1.106-.968a7.339,7.339,0,0,1,.959-4.095,8.723,8.723,0,0,1,5.4-3.976c.044-.012.09-.021.133-.036C2059.888,731.888,2059.9,731.871,2059.91,731.858Zm9.687,7.536a6.1,6.1,0,0,0-3.9-5.526,7.7,7.7,0,0,0-7.668.563,5.842,5.842,0,0,0-2.857,4.963ZM2058.78,727.66a3.633,3.633,0,1,0,3.6-3.123A3.389,3.389,0,0,0,2058.78,727.66Z" transform="translate(0)" fill="#fff"/>
  </g>
</svg>
