<svg xmlns="http://www.w3.org/2000/svg" width="14.824" height="18" viewBox="0 0 14.824 18">
  <g id="Group_5" data-name="Group 5" transform="translate(2187.86 -1493.6)">
    <path id="Path_6" data-name="Path 6" d="M-2180.087,1493.6c.264.062.536.1.791.189a3.485,3.485,0,0,1,2.456,3.211c0,.041,0,.081.009.149h.174c.469,0,.937,0,1.406,0a1.312,1.312,0,0,1,1.378,1.261c.11,1.407.233,2.812.349,4.218q.155,1.882.307,3.764c.054.659.1,1.319.169,1.977a2.972,2.972,0,0,1-2.93,3.215c-1.332.028-2.665.008-4,.008-1.6,0-3.2,0-4.8,0a3.019,3.019,0,0,1-2.99-2.211,4.025,4.025,0,0,1-.047-1.465q.141-1.671.278-3.343.158-1.9.314-3.8c.065-.788.136-1.575.193-2.363a1.307,1.307,0,0,1,1.377-1.261c.522,0,1.044,0,1.548,0,.059-.339.089-.666.174-.979a3.559,3.559,0,0,1,2.959-2.533,1.513,1.513,0,0,0,.155-.038Zm2.155,4.617h-5.04c0,.428,0,.844,0,1.259a.537.537,0,0,1-.538.552.543.543,0,0,1-.555-.554c0-.164,0-.328,0-.492v-.778c-.539,0-1.056,0-1.572,0-.213,0-.277.062-.294.271q-.077.937-.155,1.873-.175,2.1-.351,4.2c-.107,1.29-.2,2.58-.322,3.869a1.915,1.915,0,0,0,1.982,2.119q4.327.005,8.655,0a1.912,1.912,0,0,0,1.983-2.1c-.148-1.692-.285-3.384-.426-5.077q-.2-2.451-.4-4.9c-.016-.192-.085-.253-.292-.253q-.731,0-1.461,0a.916.916,0,0,0-.111.014c0,.413.011.817-.007,1.219a.8.8,0,0,1-.137.4.509.509,0,0,1-.591.154.523.523,0,0,1-.359-.5C-2177.936,1499.073-2177.932,1498.651-2177.932,1498.217Zm0-1.076a2.361,2.361,0,0,0-1.261-2.151,2.465,2.465,0,0,0-2.656.078,2.343,2.343,0,0,0-1.127,2.073Z" transform="translate(0)" fill="#7f45f1"/>
    <path id="Path_7" data-name="Path 7" d="M-2080.756,1696.912c.289-.291.563-.569.84-.845q1.119-1.121,2.241-2.241a.716.716,0,0,1,1.062-.062.7.7,0,0,1-.051,1.044q-1.772,1.78-3.553,3.552a.7.7,0,0,1-1.08,0q-.82-.807-1.626-1.627a.7.7,0,0,1-.029-1.043.7.7,0,0,1,1.026.049C-2081.537,1696.122-2081.154,1696.513-2080.756,1696.912Z" transform="translate(-100.662 -191.96)" fill="#7f45f1"/>
  </g>
</svg>
