<svg xmlns="http://www.w3.org/2000/svg" width="17" height="16.483" viewBox="0 0 17 16.483">
  <g id="Group_9" data-name="Group 9" transform="translate(-477.75 -2356.5)">
    <path id="Path_14" data-name="Path 14" d="M479.941,2356.5h12.584a.433.433,0,0,0,.06.025,1.306,1.306,0,0,1,1.084,1q.2.73.381,1.464.353,1.393.7,2.788v.58c-.011.041-.024.082-.032.123a3.113,3.113,0,0,1-2.372,2.625,3.162,3.162,0,0,1-3.387-1.073c-.03-.035-.062-.068-.1-.107a3.238,3.238,0,0,1-5.185,0,3.377,3.377,0,0,1-3.888,1.085c0,.032-.007.063-.007.093q0,3.252,0,6.5c0,.208.047.248.269.248h3.4c.054,0,.108,0,.177-.008v-.2q0-2.061,0-4.121c0-.5.211-.708.721-.708h3.785c.514,0,.728.206.728.7q0,2.069,0,4.137v.2h3.591c.208,0,.251-.041.257-.243,0-.043,0-.086,0-.128,0-1.524,0-3.048,0-4.572a.871.871,0,0,1,.076-.371.6.6,0,0,1,1.119.315c0,1.6.006,3.2,0,4.8a1.321,1.321,0,0,1-1.4,1.328q-6.266,0-12.533,0a1.579,1.579,0,0,1-.409-.052,1.307,1.307,0,0,1-.985-1.33q0-3.63,0-7.26a.557.557,0,0,0-.1-.292,4.276,4.276,0,0,1-.615-1.223c-.047-.164-.08-.331-.119-.5v-.612c.019-.083.036-.165.058-.247.346-1.343.685-2.688,1.044-4.029a1.245,1.245,0,0,1,.9-.881Zm4.354,1.135c0,.05-.005.082-.005.114q0,2.149,0,4.3a2.557,2.557,0,0,0,.033.384,1.991,1.991,0,0,0,3.953-.328c.007-1.444,0-2.887,0-4.33,0-.045-.007-.092-.011-.137Zm-1.21,0c-.038,0-.059-.009-.081-.009-.934,0-1.869,0-2.8,0-.166,0-.218.092-.252.222-.319,1.236-.644,2.47-.959,3.708a2.065,2.065,0,0,0,2.494,2.479,2.035,2.035,0,0,0,1.6-1.946c.009-1.448,0-2.9,0-4.344C483.092,2357.714,483.088,2357.682,483.085,2357.637Zm6.356-.009v.163q0,2.131,0,4.263a2.209,2.209,0,0,0,.022.288,2.055,2.055,0,0,0,2.381,1.719,2.018,2.018,0,0,0,1.676-2.383c-.308-1.3-.662-2.588-1-3.88a.212.212,0,0,0-.241-.17c-.42,0-.841,0-1.261,0Zm-4.6,10.365v3.854h2.813v-3.854Z" transform="translate(0)" fill="#7f45f1"/>
  </g>
</svg>
