<svg xmlns="http://www.w3.org/2000/svg" width="18" height="18" viewBox="0 0 18 18">
  <g id="Group_4" data-name="Group 4" transform="translate(813.319 -937.5)">
    <path id="Path_5" data-name="Path 5" d="M-795.319,948.044c-.047.258-.079.519-.143.772a1.872,1.872,0,0,1-1.086,1.419,5.353,5.353,0,0,1-.878.188c0,.044,0,.129,0,.215-.01.515.021,1.034-.038,1.544a2.6,2.6,0,0,1-2.524,2.256c-.533.008-1.066.007-1.6,0a.229.229,0,0,0-.248.152,1.518,1.518,0,0,1-1.4.9,8.576,8.576,0,0,1-1.366-.035,1.545,1.545,0,0,1-1.291-1.633,1.569,1.569,0,0,1,1.451-1.481,9.1,9.1,0,0,1,1.437.023,1.446,1.446,0,0,1,1.177.892.191.191,0,0,0,.208.132c.509-.006,1.019,0,1.528,0a1.582,1.582,0,0,0,1.609-1.616c0-.157,0-.314,0-.492h-.2c-.457,0-.913,0-1.37,0a.52.52,0,0,1-.536-.532q0-3.172,0-6.344a.522.522,0,0,1,.548-.538c.445,0,.89,0,1.335,0h.173a5.77,5.77,0,0,0-5.494-5.3,5.8,5.8,0,0,0-6.08,5.3h.189c.445,0,.89,0,1.335,0a.522.522,0,0,1,.544.542q0,3.163,0,6.326a.521.521,0,0,1-.542.545q-1.036.006-2.072,0a.526.526,0,0,1-.545-.542c0-.115,0-.231,0-.349a4.627,4.627,0,0,1-.52-.039,1.753,1.753,0,0,1-1.4-1.37,5.074,5.074,0,0,1,0-2.843,1.73,1.73,0,0,1,1.3-1.335,5.193,5.193,0,0,1,.6-.067c.013-.291.016-.6.042-.906a6.712,6.712,0,0,1,2.062-4.361,6.725,6.725,0,0,1,4.219-1.935.827.827,0,0,0,.118-.028h.913a.787.787,0,0,0,.118.028,6.506,6.506,0,0,1,3.178,1.1,6.784,6.784,0,0,1,3.1,5.188c.03.307.03.616.044.932h.157a1.634,1.634,0,0,1,1.53.877,3.16,3.16,0,0,1,.265.683c.068.245.1.5.142.753Zm-13.782,2.171V944.93h-1.033v5.285Zm10.608,0V944.93h-1.032v5.285ZM-811.2,949.3v-3.483a2.18,2.18,0,0,0-.336,0c-.34.054-.476.317-.565.6a3.722,3.722,0,0,0-.122,1.546,3.879,3.879,0,0,0,.224.947A.623.623,0,0,0-811.2,949.3Zm13.79-3.461V949.3a.658.658,0,0,0,.811-.4,1.738,1.738,0,0,0,.124-.345,3.917,3.917,0,0,0,.083-1.428,3.972,3.972,0,0,0-.23-.945A.6.6,0,0,0-797.415,945.836Zm-6.368,7.55c-.175,0-.35,0-.525,0a.529.529,0,0,0-.529.52.525.525,0,0,0,.518.531q.534.011,1.068,0a.525.525,0,0,0,.52-.529.528.528,0,0,0-.527-.523C-803.433,953.382-803.608,953.386-803.784,953.386Z" transform="translate(0 0)" fill="#7f45f1"/>
  </g>
</svg>
